<?xml version="1.0" standalone="no"?>
<svg xmlns="http://www.w3.org/2000/svg" viewBox="0 0 51.4 59.352" width="51.4" height="59.352"><polygon fill="none" stroke="#0040ff" stroke-width="3" points="49.9,15.588 49.9,43.763999999999996 25.7,57.852 1.5,43.763999999999996 1.5,15.588 25.7,1.5"></polygon><path fill="#0061ff" fill-rule="nonzero" d="M11.26 14.11L11.26 17.09L5.21 17.09Q2.33 17.09 1.16 16.09Q0 15.10 0 12.58L0 12.58L0 0L11.26 0L11.26 2.98L3.34 2.98L3.34 6.98L8.88 6.98L8.64 9.96L3.34 9.96L3.34 12.34Q3.34 13.34 3.79 13.73Q4.25 14.11 5.45 14.11L5.45 14.11L11.26 14.11ZM22.92 0L26.40 0L21.02 16.13Q20.59 17.23 19.49 17.23L19.49 17.23Q18.34 17.23 17.90 16.13L17.90 16.13L12.60 0L16.06 0L19.49 11.14L22.92 0Z" transform="translate(12.5, 21.06)"></path></svg>